<svg version="1.1" id="Layer_1" xmlns="http://www.w3.org/2000/svg" xmlns:xlink="http://www.w3.org/1999/xlink" x="0px" y="0px"
	 width="100%" viewBox="0 0 640 640" enable-background="new 0 0 640 640" xml:space="preserve">
<path fill="#041647" opacity="1.000000" stroke="none" 
	d="
M295.000000,641.000000 
	C196.666687,641.000000 98.833366,641.000000 1.000039,641.000000 
	C1.000026,427.666718 1.000026,214.333450 1.000013,1.000125 
	C214.333237,1.000083 427.666473,1.000083 640.999756,1.000042 
	C640.999878,214.333206 640.999878,427.666412 640.999939,640.999817 
	C525.833313,641.000000 410.666656,641.000000 295.000000,641.000000 
M359.890015,554.320374 
	C359.583527,553.212219 359.277069,552.104126 359.660187,550.842224 
	C360.021240,549.110168 360.382324,547.378052 360.812195,545.315918 
	C362.729156,545.315918 364.790131,545.315918 366.509094,545.315918 
	C367.390228,548.192688 368.218475,550.896667 368.861938,552.997437 
	C372.497681,552.997437 375.259247,552.997437 378.028931,553.757507 
	C378.584686,554.833557 378.936646,556.642212 379.730316,556.862976 
	C383.891205,558.020569 388.134155,558.974731 392.406189,559.615845 
	C396.741974,560.266602 397.577606,557.531982 397.126953,553.942993 
	C396.397736,548.135620 395.744293,542.317200 394.884338,536.529358 
	C394.748138,535.612915 393.697205,534.832520 392.830566,533.362976 
	C392.849426,532.921509 392.868317,532.480103 393.386047,531.612610 
	C393.048370,530.395752 392.710693,529.178955 392.149292,527.325317 
	C392.161896,526.879395 392.174530,526.433411 392.627228,525.436096 
	C392.844849,523.517273 393.237152,521.598999 393.243835,519.679443 
	C393.257812,515.649780 394.875916,513.184448 399.597229,513.016541 
	C399.597229,513.016541 399.982910,513.298401 399.996704,514.002869 
	C400.963104,515.635010 401.683807,517.496521 402.947845,518.850952 
	C405.469757,521.553345 408.139343,524.170105 411.045776,526.441101 
	C412.673004,527.712524 414.896912,528.220215 416.941437,529.063538 
	C416.941437,529.063538 416.928711,529.152466 416.957489,529.991333 
	C417.183533,531.918518 416.695679,534.838440 417.758179,535.602478 
	C422.582550,539.071899 420.668671,543.767212 420.881256,548.138977 
	C420.942017,549.388306 421.653625,550.606018 422.864288,552.163513 
	C424.571106,552.095276 426.277924,552.026978 428.551697,552.475098 
	C436.121033,553.706177 439.206879,552.371704 440.725189,547.150330 
	C435.991272,547.049805 435.200226,543.178101 434.049164,539.879333 
	C433.036896,536.978333 432.503204,533.910461 431.773071,530.341125 
	C432.021484,529.834656 432.269897,529.328186 433.386719,528.881287 
	C434.572052,527.956177 436.162903,527.261353 436.849304,526.052856 
	C437.924316,524.160156 438.611237,521.964355 439.035400,519.812683 
	C439.339600,518.269409 438.946106,516.588623 438.905334,514.372742 
	C439.220276,513.892090 439.535217,513.411438 440.583679,512.871277 
	C446.217346,511.189178 446.710938,506.908936 445.938690,501.481049 
	C445.617249,501.278168 445.295807,501.075287 444.816589,500.269379 
	C439.088043,499.354950 433.850616,499.959076 430.171875,505.471954 
	C430.171875,505.471954 430.303528,505.896667 429.599701,506.057922 
	C428.969055,507.535645 428.293823,508.996216 427.717926,510.494995 
	C426.787109,512.917480 425.921600,515.365112 425.028473,517.802124 
	C422.839813,516.390015 420.411041,515.235779 418.534607,513.488403 
	C416.883118,511.950500 415.501678,509.895416 414.623718,507.806946 
	C413.284851,504.621979 411.306641,504.694855 408.639313,505.709320 
	C400.585785,508.772308 392.302704,510.189667 383.650146,508.855438 
	C384.112915,509.923035 384.558380,510.950623 384.251831,512.247131 
	C382.777283,512.501404 381.302765,512.755737 381.123383,512.786682 
	C381.123383,516.400818 381.123383,519.068604 381.083221,522.557068 
	C381.264618,524.631775 381.263397,526.747314 381.713165,528.762146 
	C381.905609,529.624268 383.037415,530.276794 383.937866,531.857056 
	C384.010345,533.560791 384.082855,535.264465 383.377655,536.976257 
	C380.769928,536.207031 378.162201,535.437805 375.388062,534.603699 
	C375.388062,534.603699 375.309753,534.443237 375.578583,533.731628 
	C374.499939,530.925293 373.814911,527.642822 369.343109,528.641479 
	C369.343109,528.641479 369.273651,528.456787 369.571228,527.700623 
	C368.719208,522.474487 364.515778,518.473389 357.987335,517.009216 
	C357.325836,516.324158 356.664368,515.639099 355.797577,514.235718 
	C351.031128,511.429047 346.979004,514.240051 342.076874,515.972900 
	C340.290192,515.512817 338.115021,515.543274 336.793030,514.496338 
	C333.436371,511.838104 326.511993,512.434692 324.344513,516.091248 
	C323.893890,516.059265 323.443298,516.027344 322.927368,515.393433 
	C322.557465,514.823303 322.187561,514.253235 321.817688,513.683105 
	C321.580933,513.828674 321.344177,513.974243 321.107391,514.119812 
	C321.516541,514.801636 321.925690,515.483398 322.280670,516.760925 
	C322.236572,517.157227 322.192444,517.553589 321.396332,517.994385 
	C317.527252,519.185120 317.347107,521.211304 319.679169,524.265930 
	C322.494568,527.953735 321.916107,533.160645 318.149292,536.987122 
	C316.357788,533.491516 314.724274,530.135681 312.930908,526.867493 
	C311.832153,524.865173 310.813904,521.771973 309.182892,521.338562 
	C306.282837,520.567932 304.336792,520.217590 304.072266,516.631653 
	C303.986633,515.471191 301.823425,513.669617 300.469757,513.530334 
	C293.474518,512.810791 286.042236,510.317596 281.176178,516.132751 
	C274.973938,512.982361 269.244934,509.867462 263.317230,507.192963 
	C261.653870,506.442505 258.566986,506.127228 257.577576,507.092712 
	C254.046570,510.538147 250.695389,508.147430 247.294510,507.561676 
	C244.849991,507.140594 242.411057,506.562225 240.052567,505.798096 
	C237.052139,504.825989 235.523224,506.221497 236.121307,508.849731 
	C237.223465,513.693359 238.985779,518.386780 240.609528,523.869202 
	C240.461151,524.582336 240.312790,525.295532 239.423584,526.156006 
	C238.616348,528.045349 237.539703,529.867981 237.051941,531.836487 
	C235.531082,537.974304 234.112228,544.144226 232.920486,550.352844 
	C232.551636,552.274475 232.256927,555.326477 233.295670,556.162964 
	C235.277954,557.759338 238.192032,558.369019 240.816788,558.940979 
	C242.762329,559.364929 244.882034,559.274353 246.888199,559.066406 
	C249.646973,558.780334 252.371811,558.166870 255.762405,557.499817 
	C256.174286,557.654419 256.586182,557.809082 257.188965,558.696106 
	C261.052734,560.214539 264.848846,562.878845 269.753387,559.250244 
	C270.506073,559.177551 271.258759,559.104919 272.218018,559.766296 
	C276.343597,563.237366 279.978821,559.341064 284.121246,559.667664 
	C285.743134,560.096008 287.365021,560.524353 289.305298,561.531433 
	C290.501129,563.071106 291.696960,564.610718 292.591309,565.762207 
	C295.578918,564.958923 298.974365,564.045959 302.398468,563.125305 
	C299.024292,555.902222 297.457489,548.483154 299.798828,540.601624 
	C304.967468,540.120544 306.253387,544.092834 307.970001,547.643677 
	C308.739441,549.235352 309.733856,550.718811 310.636597,552.245239 
	C311.417542,553.565796 312.445007,554.797729 312.934082,556.216858 
	C313.380859,557.513184 313.251862,559.007996 313.258240,559.079773 
	C316.445343,560.407776 320.461426,561.222534 320.513550,562.240234 
	C320.891663,569.623596 326.911316,567.493225 330.152344,567.465637 
	C338.572876,567.393860 337.973053,563.425659 335.648407,557.326721 
	C334.865662,555.273010 334.303101,552.958069 334.378204,550.788025 
	C334.601685,544.332275 335.197723,537.889587 335.636444,531.440979 
	C335.824127,528.682068 335.606567,525.816833 336.330109,523.209900 
	C336.642059,522.085876 339.720947,520.514282 340.087891,520.831177 
	C341.687866,522.212585 342.984680,524.101929 343.914581,526.036133 
	C344.377655,526.999329 343.655426,528.467407 343.738068,529.688965 
	C344.334686,538.506714 344.949890,547.323975 345.688599,556.130554 
	C345.826050,557.769348 346.547516,559.359192 347.854370,560.981445 
	C349.553223,560.917603 351.252075,560.853821 353.430878,561.356140 
	C355.290802,561.012573 357.150726,560.669006 359.612854,560.054138 
	C360.046265,559.976685 360.479645,559.899170 361.337952,560.284607 
	C364.307190,557.648315 363.199554,556.057068 359.890015,554.320374 
M456.499512,284.906799 
	C460.523499,270.279694 461.631470,255.417068 459.994354,240.352707 
	C457.408447,216.557938 448.119507,196.100433 429.349365,180.700134 
	C414.941742,168.879181 397.815613,163.239517 379.752441,159.837646 
	C347.890381,153.836975 315.798981,153.652725 283.675293,156.332672 
	C259.327057,158.363922 235.503281,163.072968 213.803467,175.137619 
	C196.758469,184.614288 182.650757,197.035706 176.554794,216.305756 
	C170.159454,236.522217 173.254333,255.028580 189.183884,269.903992 
	C196.876419,277.087494 206.508774,280.589905 216.783173,275.721222 
	C227.777908,270.511200 232.066284,260.612701 232.955338,248.908371 
	C233.071030,247.385239 234.186035,245.938004 234.838165,244.455612 
	C235.979218,245.877670 237.953369,247.216385 238.105515,248.737381 
	C238.566650,253.346878 238.372742,258.027252 238.344742,262.679474 
	C238.090973,304.824432 237.942688,346.970612 237.490967,389.113495 
	C237.304245,406.532410 234.058319,423.194550 223.289963,437.670746 
	C222.217087,439.113007 222.283096,442.187561 223.003555,444.045898 
	C226.544861,453.180084 233.729263,459.238647 241.855072,463.984802 
	C265.699005,477.911682 290.950226,479.772034 316.951996,471.299561 
	C322.683655,469.431976 328.287720,466.432953 333.164093,462.876587 
	C338.653748,458.872986 338.552643,454.602356 334.283203,449.404297 
	C326.229431,439.598602 321.217682,428.229858 320.318481,415.768860 
	C319.098328,398.860565 319.277527,381.850800 318.882446,364.883942 
	C318.813599,361.927795 318.872681,358.968689 318.872681,355.801270 
	C320.782959,355.987762 322.112671,356.034027 323.412018,356.257080 
	C338.961243,358.926239 354.601440,359.590118 370.167145,356.992737 
	C412.597412,349.912628 442.608032,327.619812 456.499512,284.906799 
M208.363678,533.031860 
	C210.663361,533.367065 212.953659,533.883301 215.264496,534.003235 
	C221.902695,534.347473 227.809891,530.465881 229.656738,524.727783 
	C231.728836,518.289856 229.421631,509.902039 223.212067,507.552185 
	C213.647766,503.932770 203.495590,501.866760 194.618790,499.424103 
	C194.618790,504.139313 194.962784,507.821350 194.550125,511.416534 
	C193.565292,519.996338 192.379684,528.561646 190.935730,537.075195 
	C190.470886,539.816162 188.945877,542.377258 187.684174,545.584106 
	C191.720139,546.522339 196.479599,547.628784 202.051544,548.924072 
	C199.173813,543.278870 199.220581,539.681519 201.743439,531.586853 
	C203.645111,532.025757 205.568985,532.469727 208.363678,533.031860 
z"/>
<path fill="#FDFDFE" opacity="1.000000" stroke="none" 
	d="
M456.364441,285.286987 
	C442.608032,327.619812 412.597412,349.912628 370.167145,356.992737 
	C354.601440,359.590118 338.961243,358.926239 323.412018,356.257080 
	C322.112671,356.034027 320.782959,355.987762 318.872681,355.801270 
	C318.872681,358.968689 318.813599,361.927795 318.882446,364.883942 
	C319.277527,381.850800 319.098328,398.860565 320.318481,415.768860 
	C321.217682,428.229858 326.229431,439.598602 334.283203,449.404297 
	C338.552643,454.602356 338.653748,458.872986 333.164093,462.876587 
	C328.287720,466.432953 322.683655,469.431976 316.951996,471.299561 
	C290.950226,479.772034 265.699005,477.911682 241.855072,463.984802 
	C233.729263,459.238647 226.544861,453.180084 223.003555,444.045898 
	C222.283096,442.187561 222.217087,439.113007 223.289963,437.670746 
	C234.058319,423.194550 237.304245,406.532410 237.490967,389.113495 
	C237.942688,346.970612 238.090973,304.824432 238.344742,262.679474 
	C238.372742,258.027252 238.566650,253.346878 238.105515,248.737381 
	C237.953369,247.216385 235.979218,245.877670 234.838165,244.455612 
	C234.186035,245.938004 233.071030,247.385239 232.955338,248.908371 
	C232.066284,260.612701 227.777908,270.511200 216.783173,275.721222 
	C206.508774,280.589905 196.876419,277.087494 189.183884,269.903992 
	C173.254333,255.028580 170.159454,236.522217 176.554794,216.305756 
	C182.650757,197.035706 196.758469,184.614288 213.803467,175.137619 
	C235.503281,163.072968 259.327057,158.363922 283.675293,156.332672 
	C315.798981,153.652725 347.890381,153.836975 379.752441,159.837646 
	C397.815613,163.239517 414.941742,168.879181 429.349365,180.700134 
	C448.119507,196.100433 457.408447,216.557938 459.994354,240.352707 
	C461.631470,255.417068 460.523499,270.279694 456.364441,285.286987 
M363.058807,286.563232 
	C370.400879,263.683838 371.044678,240.999023 360.069702,219.038376 
	C353.388977,205.670456 340.169312,198.504425 326.660187,199.930634 
	C320.768890,200.552582 319.330933,202.055862 319.314240,207.745026 
	C319.217804,240.571823 319.128998,273.398682 319.057892,306.225525 
	C319.054016,308.009979 319.232513,309.794861 319.319763,311.458405 
	C326.316406,313.648468 332.768951,313.934235 339.396057,311.728912 
	C351.565094,307.679382 357.878601,298.181824 363.058807,286.563232 
z"/>
<path fill="#0B1A44" opacity="1.000000" stroke="none" 
	d="
M240.472992,523.142761 
	C238.985779,518.386780 237.223465,513.693359 236.121307,508.849731 
	C235.523224,506.221497 237.052139,504.825989 240.052567,505.798096 
	C242.411057,506.562225 244.849991,507.140594 247.294510,507.561676 
	C250.695389,508.147430 254.046570,510.538147 257.577576,507.092712 
	C258.566986,506.127228 261.653870,506.442505 263.317230,507.192963 
	C269.244934,509.867462 274.973938,512.982361 281.176178,516.132751 
	C286.042236,510.317596 293.474518,512.810791 300.469757,513.530334 
	C301.823425,513.669617 303.986633,515.471191 304.072266,516.631653 
	C304.336792,520.217590 306.282837,520.567932 309.182892,521.338562 
	C310.813904,521.771973 311.832153,524.865173 312.930908,526.867493 
	C314.724274,530.135681 316.357788,533.491516 318.149292,536.987122 
	C321.916107,533.160645 322.494568,527.953735 319.679169,524.265930 
	C317.347107,521.211304 317.527252,519.185120 322.115723,518.163086 
	C323.284973,527.457153 323.734863,536.582520 324.184753,545.707947 
	C323.403687,546.060852 322.622650,546.413757 321.841583,546.766724 
	C321.318634,545.733032 320.941803,544.587524 320.249573,543.683472 
	C314.792084,536.555969 308.647736,529.862244 303.952423,522.269653 
	C299.307587,514.758545 293.022797,514.519104 286.138336,515.225037 
	C286.766754,517.800049 287.824799,520.099976 287.801270,522.388855 
	C287.695496,532.702026 287.433960,543.020630 286.847595,553.315552 
	C286.736969,555.258362 284.893860,557.102478 283.850159,558.992126 
	C279.978821,559.341064 276.343597,563.237366 272.132996,558.960876 
	C272.300781,554.492249 272.553558,550.829041 272.806335,547.165771 
	C272.493683,546.843079 272.181061,546.520325 271.868408,546.197571 
	C269.242035,552.696228 264.483734,550.741455 260.076599,550.179382 
	C258.922699,550.032166 257.766541,549.900696 256.615204,549.735840 
	C246.686096,548.314331 246.682388,548.311951 248.214325,538.421265 
	C248.256851,538.146729 248.605621,537.919556 249.398056,536.960510 
	C255.294846,538.151733 261.609314,539.427368 268.168091,540.752319 
	C268.404114,537.949707 268.718567,534.215637 268.954315,531.416199 
	C262.033478,530.826782 255.661758,530.284119 249.059052,529.721802 
	C249.557587,525.443726 249.933853,522.214722 250.401443,518.202026 
	C258.262909,521.339722 267.716431,517.150757 274.170898,527.326416 
	C274.669312,521.895752 275.019928,518.075439 275.396576,513.971497 
	C263.011719,512.448486 251.196518,510.995605 240.472992,509.676910 
	C240.472992,514.447632 240.472992,518.795227 240.472992,523.142761 
z"/>
<path fill="#EDF0F4" opacity="1.000000" stroke="none" 
	d="
M283.985718,559.329895 
	C284.893860,557.102478 286.736969,555.258362 286.847595,553.315552 
	C287.433960,543.020630 287.695496,532.702026 287.801270,522.388855 
	C287.824799,520.099976 286.766754,517.800049 286.138336,515.225037 
	C293.022797,514.519104 299.307587,514.758545 303.952423,522.269653 
	C308.647736,529.862244 314.792084,536.555969 320.249573,543.683472 
	C320.941803,544.587524 321.318634,545.733032 321.841583,546.766724 
	C322.622650,546.413757 323.403687,546.060852 324.184753,545.707947 
	C323.734863,536.582520 323.284973,527.457153 322.491699,518.140808 
	C322.192444,517.553589 322.236572,517.157227 322.494507,516.507019 
	C322.708313,516.253113 322.992676,515.995361 322.992676,515.995361 
	C323.443298,516.027344 323.893890,516.059265 325.116882,516.102966 
	C329.235809,516.114685 332.582367,516.114685 335.059906,516.114685 
	C334.171173,520.104492 332.913696,523.290527 332.844482,526.502136 
	C332.595215,538.072327 332.746552,549.651062 332.746552,561.340515 
	C326.866455,562.093201 322.707092,561.969666 319.650757,557.087646 
	C317.023621,552.891235 313.567444,549.211975 310.459503,545.318787 
	C306.062103,539.810425 301.647888,534.315552 297.240814,528.814880 
	C296.227783,539.678345 294.967621,550.251038 296.871216,560.952698 
	C294.865265,560.952698 291.926086,560.952698 288.986908,560.952698 
	C287.365021,560.524353 285.743134,560.096008 283.985718,559.329895 
z"/>
<path fill="#EDF0F4" opacity="1.000000" stroke="none" 
	d="
M392.887177,532.038635 
	C392.868317,532.480103 392.849426,532.921509 392.873291,534.122559 
	C393.549438,542.062744 394.182861,549.243225 394.787323,556.095764 
	C387.904327,559.603088 383.462921,556.265320 379.229523,551.603760 
	C378.539795,550.837891 377.966400,550.336975 377.299133,549.562500 
	C376.899628,549.070129 376.593933,548.851379 376.212341,548.756836 
	C376.136444,548.881104 376.328583,548.662231 376.205688,548.372314 
	C374.904877,546.890198 373.726959,545.697937 372.387512,544.250488 
	C371.340179,543.186523 370.454376,542.377808 369.536835,541.515930 
	C369.505096,541.462769 369.396515,541.403198 369.341644,541.218750 
	C369.146912,540.798950 368.943024,540.653198 368.645935,540.510620 
	C368.616791,540.424194 368.453796,540.342102 368.294067,540.074646 
	C366.575409,538.403809 365.016449,537.000366 363.418030,535.603516 
	C363.378571,535.610107 363.397675,535.532410 363.266296,535.228760 
	C361.120148,532.736328 359.105316,530.547546 357.090485,528.358826 
	C356.679230,528.595947 356.267975,528.833008 355.856720,529.070068 
	C356.034088,531.386169 356.211426,533.702271 356.315613,536.360840 
	C356.407349,537.834656 356.572235,538.966003 356.638245,540.501221 
	C356.711884,542.272095 356.884430,543.639221 357.002197,545.420593 
	C357.099548,547.213318 357.251648,548.591736 357.346222,550.355957 
	C358.188202,553.166077 359.087677,555.590454 360.129517,558.227905 
	C360.485596,558.901184 360.699310,559.361389 360.913025,559.821655 
	C360.479645,559.899170 360.046265,559.976685 358.931396,560.102051 
	C356.483582,560.363342 354.717255,560.576660 352.950928,560.789978 
	C351.252075,560.853821 349.553223,560.917603 347.420380,560.580017 
	C347.687042,557.760254 349.059692,555.315918 348.967072,552.928345 
	C348.640503,544.511414 348.108917,536.075989 347.044098,527.725525 
	C346.532135,523.710754 344.653839,519.870239 343.848633,515.853638 
	C348.202972,515.488953 352.102936,515.221497 356.002869,514.954041 
	C356.664368,515.639099 357.325836,516.324158 358.404236,517.415771 
	C362.305298,521.367126 365.789459,524.911987 369.273621,528.456787 
	C369.273651,528.456787 369.343109,528.641479 369.600586,528.945618 
	C371.675262,530.980896 373.492523,532.712097 375.309753,534.443237 
	C375.309753,534.443237 375.388062,534.603699 375.643921,534.905029 
	C378.621918,537.867188 381.343994,540.527954 384.066071,543.188721 
	C384.399139,542.982361 384.732239,542.776001 385.065338,542.569641 
	C384.761993,540.702454 384.458649,538.835327 384.155334,536.968201 
	C384.082855,535.264465 384.010345,533.560791 383.912323,531.027710 
	C382.965637,527.377747 382.044495,524.557068 381.123352,521.736389 
	C381.123383,519.068604 381.123383,516.400818 381.123383,512.786682 
	C381.302765,512.755737 382.777283,512.501404 385.036743,512.184082 
	C388.420563,511.848816 391.019501,511.576538 394.897247,511.170288 
	C389.599579,516.281799 391.595734,521.208130 392.187134,525.987488 
	C392.174530,526.433411 392.161896,526.879395 392.189667,527.988159 
	C392.449097,529.780273 392.668152,530.909424 392.887177,532.038635 
z"/>
<path fill="#EBEFF3" opacity="1.000000" stroke="none" 
	d="
M240.541260,523.505981 
	C240.472992,518.795227 240.472992,514.447632 240.472992,509.676910 
	C251.196518,510.995605 263.011719,512.448486 275.396576,513.971497 
	C275.019928,518.075439 274.669312,521.895752 274.170898,527.326416 
	C267.716431,517.150757 258.262909,521.339722 250.401443,518.202026 
	C249.933853,522.214722 249.557587,525.443726 249.059052,529.721802 
	C255.661758,530.284119 262.033478,530.826782 268.954315,531.416199 
	C268.718567,534.215637 268.404114,537.949707 268.168091,540.752319 
	C261.609314,539.427368 255.294846,538.151733 249.398056,536.960510 
	C248.605621,537.919556 248.256851,538.146729 248.214325,538.421265 
	C246.682388,548.311951 246.686096,548.314331 256.615204,549.735840 
	C257.766541,549.900696 258.922699,550.032166 260.076599,550.179382 
	C264.483734,550.741455 269.242035,552.696228 271.868408,546.197571 
	C272.181061,546.520325 272.493683,546.843079 272.806335,547.165771 
	C272.553558,550.829041 272.300781,554.492249 272.029724,558.593872 
	C271.258759,559.104919 270.506073,559.177551 268.963318,559.184082 
	C264.448181,558.733154 260.723114,558.348389 256.998077,557.963684 
	C256.586182,557.809082 256.174286,557.654419 255.079956,557.413452 
	C247.799820,556.432556 241.202118,555.538086 234.029236,554.565674 
	C238.410461,549.513367 239.460129,544.133972 240.164429,526.008667 
	C240.312790,525.295532 240.461151,524.582336 240.541260,523.505981 
z"/>
<path fill="#EFF2F5" opacity="1.000000" stroke="none" 
	d="
M207.928284,532.972778 
	C205.568985,532.469727 203.645111,532.025757 201.743439,531.586853 
	C199.220581,539.681519 199.173813,543.278870 202.051544,548.924072 
	C196.479599,547.628784 191.720139,546.522339 187.684174,545.584106 
	C188.945877,542.377258 190.470886,539.816162 190.935730,537.075195 
	C192.379684,528.561646 193.565292,519.996338 194.550125,511.416534 
	C194.962784,507.821350 194.618790,504.139313 194.618790,499.424103 
	C203.495590,501.866760 213.647766,503.932770 223.212067,507.552185 
	C229.421631,509.902039 231.728836,518.289856 229.656738,524.727783 
	C227.809891,530.465881 221.902695,534.347473 215.264496,534.003235 
	C212.953659,533.883301 210.663361,533.367065 207.928284,532.972778 
M215.174774,526.055847 
	C218.869980,525.667236 220.840744,523.459167 221.093948,519.912292 
	C221.348724,516.343689 219.571442,513.859070 216.107986,512.864014 
	C212.246536,511.754547 208.330063,510.836609 204.196533,509.773285 
	C203.483505,514.863159 202.875732,519.201599 202.221329,523.872986 
	C206.577759,524.656677 210.454025,525.354065 215.174774,526.055847 
z"/>
<path fill="#0B1A44" opacity="1.000000" stroke="none" 
	d="
M343.394257,515.950806 
	C344.653839,519.870239 346.532135,523.710754 347.044098,527.725525 
	C348.108917,536.075989 348.640503,544.511414 348.967072,552.928345 
	C349.059692,555.315918 347.687042,557.760254 346.992920,560.575073 
	C346.547516,559.359192 345.826050,557.769348 345.688599,556.130554 
	C344.949890,547.323975 344.334686,538.506714 343.738068,529.688965 
	C343.655426,528.467407 344.377655,526.999329 343.914581,526.036133 
	C342.984680,524.101929 341.687866,522.212585 340.087891,520.831177 
	C339.720947,520.514282 336.642059,522.085876 336.330109,523.209900 
	C335.606567,525.816833 335.824127,528.682068 335.636444,531.440979 
	C335.197723,537.889587 334.601685,544.332275 334.378204,550.788025 
	C334.303101,552.958069 334.865662,555.273010 335.648407,557.326721 
	C337.973053,563.425659 338.572876,567.393860 330.152344,567.465637 
	C326.911316,567.493225 320.891663,569.623596 320.513550,562.240234 
	C320.461426,561.222534 316.445343,560.407776 313.258240,559.079773 
	C313.251862,559.007996 313.380859,557.513184 312.934082,556.216858 
	C312.445007,554.797729 311.417542,553.565796 310.636597,552.245239 
	C309.733856,550.718811 308.739441,549.235352 307.970001,547.643677 
	C306.253387,544.092834 304.967468,540.120544 299.798828,540.601624 
	C297.457489,548.483154 299.024292,555.902222 302.398468,563.125305 
	C298.974365,564.045959 295.578918,564.958923 292.591309,565.762207 
	C291.696960,564.610718 290.501129,563.071106 289.146118,561.242065 
	C291.926086,560.952698 294.865265,560.952698 296.871216,560.952698 
	C294.967621,550.251038 296.227783,539.678345 297.240814,528.814880 
	C301.647888,534.315552 306.062103,539.810425 310.459503,545.318787 
	C313.567444,549.211975 317.023621,552.891235 319.650757,557.087646 
	C322.707092,561.969666 326.866455,562.093201 332.746552,561.340515 
	C332.746552,549.651062 332.595215,538.072327 332.844482,526.502136 
	C332.913696,523.290527 334.171173,520.104492 335.059906,516.114685 
	C332.582367,516.114685 329.235809,516.114685 325.443909,516.007446 
	C326.511993,512.434692 333.436371,511.838104 336.793030,514.496338 
	C338.115021,515.543274 340.290192,515.512817 342.579926,515.975037 
	C343.082977,515.977173 343.394257,515.950806 343.394257,515.950806 
z"/>
<path fill="#EDF0F4" opacity="1.000000" stroke="none" 
	d="
M430.303528,505.896667 
	C430.303528,505.896667 430.171875,505.471954 430.441223,505.065582 
	C435.465149,503.396942 440.219757,502.134674 444.974365,500.872437 
	C445.295807,501.075287 445.617249,501.278168 445.730957,501.970886 
	C443.632172,505.950745 441.741180,509.440765 439.850159,512.930786 
	C439.535217,513.411438 439.220276,513.892090 438.623230,514.891418 
	C436.400177,519.880676 434.459259,524.351196 432.518311,528.821777 
	C432.269897,529.328186 432.021484,529.834656 431.518188,530.913086 
	C432.574524,537.522888 430.809753,544.535156 437.194366,549.084473 
	C433.909241,550.109741 430.946991,551.034241 427.984741,551.958740 
	C426.277924,552.026978 424.571106,552.095276 422.621582,551.650574 
	C423.056458,550.048584 424.418488,548.879089 424.301453,547.883423 
	C423.495758,541.028198 424.238861,533.466553 416.928711,529.152466 
	C416.928711,529.152466 416.941437,529.063538 416.776733,528.759277 
	C411.068970,523.402832 405.525940,518.350586 399.982910,513.298401 
	C399.982910,513.298401 399.597229,513.016541 399.293823,512.578735 
	C403.515961,510.568878 408.041504,508.996796 411.514374,507.790375 
	C413.379517,516.530823 420.911835,519.354309 425.103760,525.794617 
	C427.612274,520.132324 429.933319,515.415833 431.712982,510.503296 
	C432.150208,509.296326 430.820770,507.449402 430.303528,505.896667 
z"/>
<path fill="#1C2749" opacity="1.000000" stroke="none" 
	d="
M429.951599,505.977295 
	C430.820770,507.449402 432.150208,509.296326 431.712982,510.503296 
	C429.933319,515.415833 427.612274,520.132324 425.103760,525.794617 
	C420.911835,519.354309 413.379517,516.530823 411.514374,507.790375 
	C408.041504,508.996796 403.515961,510.568878 399.059021,512.534790 
	C394.875916,513.184448 393.257812,515.649780 393.243835,519.679443 
	C393.237152,521.598999 392.844849,523.517273 392.407166,525.711792 
	C391.595734,521.208130 389.599579,516.281799 394.897247,511.170288 
	C391.019501,511.576538 388.420563,511.848816 385.412720,512.049683 
	C384.558380,510.950623 384.112915,509.923035 383.650146,508.855438 
	C392.302704,510.189667 400.585785,508.772308 408.639313,505.709320 
	C411.306641,504.694855 413.284851,504.621979 414.623718,507.806946 
	C415.501678,509.895416 416.883118,511.950500 418.534607,513.488403 
	C420.411041,515.235779 422.839813,516.390015 425.028503,517.802124 
	C425.921600,515.365112 426.787109,512.917480 427.717926,510.494995 
	C428.293823,508.996216 428.969055,507.535645 429.951599,505.977295 
z"/>
<path fill="#0B1A44" opacity="1.000000" stroke="none" 
	d="
M239.794006,526.082336 
	C239.460129,544.133972 238.410461,549.513367 234.029236,554.565674 
	C241.202118,555.538086 247.799820,556.432556 254.754349,557.510376 
	C252.371811,558.166870 249.646973,558.780334 246.888199,559.066406 
	C244.882034,559.274353 242.762329,559.364929 240.816788,558.940979 
	C238.192032,558.369019 235.277954,557.759338 233.295670,556.162964 
	C232.256927,555.326477 232.551636,552.274475 232.920486,550.352844 
	C234.112228,544.144226 235.531082,537.974304 237.051941,531.836487 
	C237.539703,529.867981 238.616348,528.045349 239.794006,526.082336 
z"/>
<path fill="#0B1A44" opacity="1.000000" stroke="none" 
	d="
M377.393005,549.836060 
	C377.966400,550.336975 378.539795,550.837891 378.965546,551.736450 
	C378.552216,552.421814 378.286499,552.709595 378.020813,552.997437 
	C375.259247,552.997437 372.497681,552.997437 368.861938,552.997437 
	C368.218475,550.896667 367.390228,548.192688 366.509094,545.315918 
	C364.790131,545.315918 362.729156,545.315918 360.812195,545.315918 
	C360.382324,547.378052 360.021240,549.110168 359.181885,550.712524 
	C358.270325,550.378662 357.837006,550.174377 357.403717,549.970154 
	C357.251648,548.591736 357.099548,547.213318 357.324829,545.342285 
	C358.117432,543.912659 358.532623,542.975525 359.316589,541.931641 
	C360.124359,539.882874 360.563385,537.940918 361.408264,535.957520 
	C362.341980,535.788269 362.869812,535.660339 363.397675,535.532410 
	C363.397675,535.532410 363.378571,535.610107 363.339355,535.982666 
	C364.156616,538.797729 364.703979,541.639771 368.453796,540.342102 
	C368.453796,540.342102 368.616791,540.424194 368.615356,540.743652 
	C368.613892,541.063171 368.927887,541.410522 368.927887,541.410522 
	C368.927887,541.410522 369.396515,541.403198 369.396515,541.403198 
	C369.396515,541.403198 369.505096,541.462769 369.399902,541.918335 
	C369.211182,543.217590 369.127625,544.061401 369.041840,545.282288 
	C370.050415,546.429443 371.061188,547.199402 372.404968,548.132324 
	C373.934845,548.417480 375.131714,548.539856 376.328583,548.662231 
	C376.328583,548.662231 376.136444,548.881104 376.292480,549.039185 
	C376.763367,549.410217 377.078186,549.623169 377.393005,549.836060 
z"/>
<path fill="#1C2749" opacity="1.000000" stroke="none" 
	d="
M378.024872,553.377441 
	C378.286499,552.709595 378.552216,552.421814 379.081879,552.001404 
	C383.462921,556.265320 387.904327,559.603088 394.787323,556.095764 
	C394.182861,549.243225 393.549438,542.062744 392.992615,534.435669 
	C393.697205,534.832520 394.748138,535.612915 394.884338,536.529358 
	C395.744293,542.317200 396.397736,548.135620 397.126953,553.942993 
	C397.577606,557.531982 396.741974,560.266602 392.406189,559.615845 
	C388.134155,558.974731 383.891205,558.020569 379.730316,556.862976 
	C378.936646,556.642212 378.584686,554.833557 378.024872,553.377441 
z"/>
<path fill="#1C2749" opacity="1.000000" stroke="none" 
	d="
M428.268219,552.216919 
	C430.946991,551.034241 433.909241,550.109741 437.194366,549.084473 
	C430.809753,544.535156 432.574524,537.522888 431.510742,531.200684 
	C432.503204,533.910461 433.036896,536.978333 434.049164,539.879333 
	C435.200226,543.178101 435.991272,547.049805 440.725189,547.150330 
	C439.206879,552.371704 436.121033,553.706177 428.268219,552.216919 
z"/>
<path fill="#1C2749" opacity="1.000000" stroke="none" 
	d="
M416.943115,529.571899 
	C424.238861,533.466553 423.495758,541.028198 424.301453,547.883423 
	C424.418488,548.879089 423.056458,550.048584 422.222839,551.487915 
	C421.653625,550.606018 420.942017,549.388306 420.881256,548.138977 
	C420.668671,543.767212 422.582550,539.071899 417.758179,535.602478 
	C416.695679,534.838440 417.183533,531.918518 416.943115,529.571899 
z"/>
<path fill="#1C2749" opacity="1.000000" stroke="none" 
	d="
M399.989807,513.650635 
	C405.525940,518.350586 411.068970,523.402832 416.731995,528.763550 
	C414.896912,528.220215 412.673004,527.712524 411.045776,526.441101 
	C408.139343,524.170105 405.469757,521.553345 402.947845,518.850952 
	C401.683807,517.496521 400.963104,515.635010 399.989807,513.650635 
z"/>
<path fill="#1C2749" opacity="1.000000" stroke="none" 
	d="
M432.952515,528.851562 
	C434.459259,524.351196 436.400177,519.880676 438.602478,515.189636 
	C438.946106,516.588623 439.339600,518.269409 439.035400,519.812683 
	C438.611237,521.964355 437.924316,524.160156 436.849304,526.052856 
	C436.162903,527.261353 434.572052,527.956177 432.952515,528.851562 
z"/>
<path fill="#1C2749" opacity="1.000000" stroke="none" 
	d="
M369.422424,528.078735 
	C365.789459,524.911987 362.305298,521.367126 358.676331,517.507263 
	C364.515778,518.473389 368.719208,522.474487 369.422424,528.078735 
z"/>
<path fill="#1C2749" opacity="1.000000" stroke="none" 
	d="
M383.766479,536.972229 
	C384.458649,538.835327 384.761993,540.702454 385.065338,542.569641 
	C384.732239,542.776001 384.399139,542.982361 384.066071,543.188721 
	C381.343994,540.527954 378.621918,537.867188 375.727112,534.937500 
	C378.162201,535.437805 380.769928,536.207031 383.766479,536.972229 
z"/>
<path fill="#1C2749" opacity="1.000000" stroke="none" 
	d="
M440.216919,512.901001 
	C441.741180,509.440765 443.632172,505.950745 445.789001,502.254150 
	C446.710938,506.908936 446.217346,511.189178 440.216919,512.901001 
z"/>
<path fill="#1C2749" opacity="1.000000" stroke="none" 
	d="
M444.895477,500.570923 
	C440.219757,502.134674 435.465149,503.396942 430.385986,504.850220 
	C433.850616,499.959076 439.088043,499.354950 444.895477,500.570923 
z"/>
<path fill="#1C2749" opacity="1.000000" stroke="none" 
	d="
M343.848633,515.853638 
	C343.394257,515.950806 343.082977,515.977173 342.931183,515.934082 
	C346.979004,514.240051 351.031128,511.429047 355.900208,514.594849 
	C352.102936,515.221497 348.202972,515.488953 343.848633,515.853638 
z"/>
<path fill="#0B1A44" opacity="1.000000" stroke="none" 
	d="
M257.093506,558.329895 
	C260.723114,558.348389 264.448181,558.733154 268.590637,559.255981 
	C264.848846,562.878845 261.052734,560.214539 257.093506,558.329895 
z"/>
<path fill="#1C2749" opacity="1.000000" stroke="none" 
	d="
M381.103271,522.146729 
	C382.044495,524.557068 382.965637,527.377747 383.814606,530.611450 
	C383.037415,530.276794 381.905609,529.624268 381.713165,528.762146 
	C381.263397,526.747314 381.264618,524.631775 381.103271,522.146729 
z"/>
<path fill="#1C2749" opacity="1.000000" stroke="none" 
	d="
M375.444153,534.087402 
	C373.492523,532.712097 371.675262,530.980896 369.689941,528.987427 
	C373.814911,527.642822 374.499939,530.925293 375.444153,534.087402 
z"/>
<path fill="#1C2749" opacity="1.000000" stroke="none" 
	d="
M357.346222,550.355957 
	C357.837006,550.174377 358.270325,550.378662 358.837097,550.789429 
	C359.277069,552.104126 359.583527,553.212219 359.934998,555.039185 
	C359.982391,556.510315 359.984741,557.262573 359.987122,558.014832 
	C359.087677,555.590454 358.188202,553.166077 357.346222,550.355957 
z"/>
<path fill="#0B1A44" opacity="1.000000" stroke="none" 
	d="
M360.129517,558.227905 
	C359.984741,557.262573 359.982391,556.510315 359.982422,555.381958 
	C363.199554,556.057068 364.307190,557.648315 361.125488,560.053101 
	C360.699310,559.361389 360.485596,558.901184 360.129517,558.227905 
z"/>
<path fill="#0B1A44" opacity="1.000000" stroke="none" 
	d="
M353.190918,561.073059 
	C354.717255,560.576660 356.483582,560.363342 358.630280,560.237793 
	C357.150726,560.669006 355.290802,561.012573 353.190918,561.073059 
z"/>
<path fill="#1C2749" opacity="1.000000" stroke="none" 
	d="
M393.136597,531.825623 
	C392.668152,530.909424 392.449097,529.780273 392.301514,528.306580 
	C392.710693,529.178955 393.048370,530.395752 393.136597,531.825623 
z"/>
<path fill="#0B1A44" opacity="1.000000" stroke="none" 
	d="
M322.960022,515.694397 
	C322.992676,515.995361 322.708313,516.253113 322.521545,516.209167 
	C321.925690,515.483398 321.516541,514.801636 321.107391,514.119812 
	C321.344177,513.974243 321.580933,513.828674 321.817688,513.683105 
	C322.187561,514.253235 322.557465,514.823303 322.960022,515.694397 
z"/>
<path fill="#081948" opacity="1.000000" stroke="none" 
	d="
M362.948547,286.933655 
	C357.878601,298.181824 351.565094,307.679382 339.396057,311.728912 
	C332.768951,313.934235 326.316406,313.648468 319.319763,311.458405 
	C319.232513,309.794861 319.054016,308.009979 319.057892,306.225525 
	C319.128998,273.398682 319.217804,240.571823 319.314240,207.745026 
	C319.330933,202.055862 320.768890,200.552582 326.660187,199.930634 
	C340.169312,198.504425 353.388977,205.670456 360.069702,219.038376 
	C371.044678,240.999023 370.400879,263.683838 362.948547,286.933655 
M337.997131,279.999908 
	C337.997131,279.999908 337.965607,280.053528 337.979919,279.526672 
	C337.986603,279.351105 337.993317,279.175568 338.549500,278.929413 
	C338.861816,278.634277 339.174133,278.339111 339.486481,278.043976 
	C339.284241,277.869873 339.082031,277.695801 338.879791,277.521698 
	C338.586517,278.014465 338.293243,278.507233 337.527161,278.574951 
	C336.288330,277.434814 335.049469,276.294647 333.810638,275.154510 
	C333.199799,276.423615 332.588989,277.692688 331.995819,278.988678 
	C331.995819,278.988678 331.962433,278.978271 331.293396,278.906342 
	C323.367706,277.993256 330.584503,284.917175 326.603638,286.121826 
	C335.712921,289.952881 340.086487,289.044281 341.353394,283.271454 
	C340.198700,283.180206 339.071045,283.091125 337.924133,282.444458 
	C338.027649,282.289978 338.131165,282.135498 338.725708,281.732483 
	C339.192871,281.308197 339.660004,280.883911 340.594452,280.035217 
	C339.208344,280.035217 338.577057,280.035217 337.997131,279.999908 
z"/>
<path fill="#1C2749" opacity="1.000000" stroke="none" 
	d="
M363.266296,535.228760 
	C362.869812,535.660339 362.341980,535.788269 361.203430,535.832397 
	C360.338409,535.543457 360.144318,535.291870 359.911682,534.846558 
	C359.538879,534.797302 359.264740,534.895447 358.867859,535.199341 
	C358.545013,535.663330 358.295624,535.858643 357.728821,535.998169 
	C357.103424,536.009705 356.746124,536.014038 356.388794,536.018311 
	C356.211426,533.702271 356.034088,531.386169 355.856720,529.070068 
	C356.267975,528.833008 356.679230,528.595947 357.090485,528.358826 
	C359.105316,530.547546 361.120148,532.736328 363.266296,535.228760 
z"/>
<path fill="#1C2749" opacity="1.000000" stroke="none" 
	d="
M368.294067,540.074646 
	C364.703979,541.639771 364.156616,538.797729 363.378815,535.976135 
	C365.016449,537.000366 366.575409,538.403809 368.294067,540.074646 
z"/>
<path fill="#1C2749" opacity="1.000000" stroke="none" 
	d="
M376.205688,548.372314 
	C375.131714,548.539856 373.934845,548.417480 372.391846,547.887939 
	C372.045685,547.480652 372.023010,546.991028 372.024475,546.661011 
	C372.013275,545.891418 372.000610,545.451721 372.128723,544.886108 
	C372.269562,544.760132 372.549072,544.505676 372.549072,544.505676 
	C373.726959,545.697937 374.904877,546.890198 376.205688,548.372314 
z"/>
<path fill="#1C2749" opacity="1.000000" stroke="none" 
	d="
M369.044067,544.905151 
	C369.127625,544.061401 369.211182,543.217590 369.431641,541.971436 
	C370.454376,542.377808 371.340179,543.186523 372.387543,544.250488 
	C372.549072,544.505676 372.269562,544.760132 371.798584,544.873047 
	C370.886871,544.983398 370.446075,544.980896 369.764801,544.962646 
	C369.524292,544.946899 369.044067,544.905151 369.044067,544.905151 
z"/>
<path fill="#1C2749" opacity="1.000000" stroke="none" 
	d="
M358.947815,542.038391 
	C358.532623,542.975525 358.117432,543.912659 357.379578,544.927979 
	C356.884430,543.639221 356.711884,542.272095 356.946838,540.477661 
	C357.560638,540.045715 357.766937,540.041199 358.007690,540.324768 
	C358.344055,541.088074 358.645935,541.563232 358.947815,542.038391 
z"/>
<path fill="#0B1A44" opacity="1.000000" stroke="none" 
	d="
M357.973206,540.036621 
	C357.766937,540.041199 357.560638,540.045715 357.045776,540.073853 
	C356.572235,538.966003 356.407349,537.834656 356.315613,536.360779 
	C356.746124,536.014038 357.103424,536.009705 357.729736,536.402405 
	C357.990234,537.878479 357.981720,538.957581 357.973206,540.036621 
z"/>
<path fill="#1C2749" opacity="1.000000" stroke="none" 
	d="
M369.341644,541.218750 
	C369.396515,541.403198 368.927887,541.410522 368.927887,541.410522 
	C368.927887,541.410522 368.613892,541.063171 368.644501,540.830139 
	C368.943024,540.653198 369.146912,540.798950 369.341644,541.218750 
z"/>
<path fill="#1C2749" opacity="1.000000" stroke="none" 
	d="
M377.299133,549.562500 
	C377.078186,549.623169 376.763367,549.410217 376.368408,548.914917 
	C376.593933,548.851379 376.899628,549.070129 377.299133,549.562500 
z"/>
<path fill="#142349" opacity="1.000000" stroke="none" 
	d="
M214.752533,526.053589 
	C210.454025,525.354065 206.577759,524.656677 202.221329,523.872986 
	C202.875732,519.201599 203.483505,514.863159 204.196533,509.773285 
	C208.330063,510.836609 212.246536,511.754547 216.107986,512.864014 
	C219.571442,513.859070 221.348724,516.343689 221.093948,519.912292 
	C220.840744,523.459167 218.869980,525.667236 214.752533,526.053589 
z"/>
<path fill="#041647" opacity="1.000000" stroke="none" 
	d="
M358.007690,540.324768 
	C357.981720,538.957581 357.990234,537.878479 357.997833,536.395142 
	C358.295624,535.858643 358.545013,535.663330 359.122803,535.200439 
	C359.670502,534.995178 359.840424,534.994568 360.010376,534.993896 
	C360.144318,535.291870 360.338409,535.543457 360.797577,535.873779 
	C360.563385,537.940918 360.124359,539.882874 359.316589,541.931641 
	C358.645935,541.563232 358.344055,541.088074 358.007690,540.324768 
z"/>
<path fill="#041647" opacity="1.000000" stroke="none" 
	d="
M369.041840,545.282288 
	C369.044067,544.905151 369.524292,544.946899 369.892548,545.227173 
	C370.848206,546.001953 371.435608,546.496521 372.023010,546.991028 
	C372.023010,546.991028 372.045685,547.480652 372.058838,547.725037 
	C371.061188,547.199402 370.050415,546.429443 369.041840,545.282288 
z"/>
<path fill="#1C2749" opacity="1.000000" stroke="none" 
	d="
M337.943420,283.002014 
	C339.071045,283.091125 340.198700,283.180206 341.353394,283.271454 
	C340.086487,289.044281 335.712921,289.952881 326.603638,286.121826 
	C330.584503,284.917175 323.367706,277.993256 331.479248,279.292511 
	C331.937408,281.588409 332.209686,283.498169 332.481964,285.407898 
	C334.302460,284.605927 336.122925,283.803986 337.943420,283.002014 
z"/>
<path fill="#7F8FB0" opacity="1.000000" stroke="none" 
	d="
M337.933777,282.723236 
	C336.122925,283.803986 334.302460,284.605927 332.481964,285.407898 
	C332.209686,283.498169 331.937408,281.588409 331.813782,279.328491 
	C331.962433,278.978271 331.995819,278.988678 332.376892,278.950073 
	C334.493866,279.292114 336.229736,279.672821 337.965607,280.053528 
	C337.965607,280.053528 337.997131,279.999908 338.050110,280.337189 
	C338.146942,281.109985 338.190826,281.545471 338.234680,281.980988 
	C338.131165,282.135498 338.027649,282.289978 337.933777,282.723236 
z"/>
<path fill="#1C2749" opacity="1.000000" stroke="none" 
	d="
M337.972778,279.790100 
	C336.229736,279.672821 334.493866,279.292114 332.368103,278.936615 
	C332.588989,277.692688 333.199799,276.423615 333.810638,275.154510 
	C335.049469,276.294647 336.288330,277.434814 337.763580,278.787476 
	C337.993317,279.175568 337.986603,279.351105 337.972778,279.790100 
z"/>
<path fill="#1C2749" opacity="1.000000" stroke="none" 
	d="
M338.480194,281.856750 
	C338.190826,281.545471 338.146942,281.109985 338.024445,280.354858 
	C338.577057,280.035217 339.208344,280.035217 340.594452,280.035217 
	C339.660004,280.883911 339.192871,281.308197 338.480194,281.856750 
z"/>
<path fill="#1C2749" opacity="1.000000" stroke="none" 
	d="
M338.274750,278.964722 
	C338.293243,278.507233 338.586517,278.014465 338.879791,277.521698 
	C339.082031,277.695801 339.284241,277.869873 339.486450,278.043945 
	C339.174133,278.339111 338.861816,278.634277 338.274750,278.964722 
z"/>
<path fill="#0B1A44" opacity="1.000000" stroke="none" 
	d="
M359.911682,534.846558 
	C359.840424,534.994568 359.670502,534.995178 359.245605,534.994751 
	C359.264740,534.895447 359.538879,534.797302 359.911682,534.846558 
z"/>
<path fill="#0B1A44" opacity="1.000000" stroke="none" 
	d="
M372.024475,546.661011 
	C371.435608,546.496521 370.848206,546.001953 370.133057,545.242920 
	C370.446075,544.980896 370.886871,544.983398 371.657776,544.999023 
	C372.000610,545.451721 372.013275,545.891418 372.024475,546.661011 
z"/>
</svg>